<?xml version='1.0' encoding='UTF-8' standalone='no'?>
<!-- Created with Fritzing (http://www.fritzing.org/) -->
<svg xmlns:svg='http://www.w3.org/2000/svg' xmlns='http://www.w3.org/2000/svg' version='1.2' baseProfile='tiny' x='0in' y='0in' width='2.20502in' height='2.68745in' viewBox='0 0 158.761 193.497' >
<g partID='56410'><g transform='translate(43.2109,92.8227)' ><g id="schematic">
<line class="other" stroke="#000000" stroke-linecap="round" y1="7.55002" x1="14.75" y2="10.43" stroke-width="0.432" x2="8.98999"/>
<line class="other" stroke="#000000" stroke-linecap="round" y1="19.0701" x1="12.59" y2="21.9501" stroke-width="0.432" x2="14.75"/>
<line class="other" stroke="#000000" stroke-linecap="round" y1="21.9501" x1="14.75" y2="21.9501" stroke-width="0.432" x2="11.15"/>
<line class="other" stroke="#000000" stroke-linecap="round" y1="21.9501" x1="11.15" y2="19.0701" stroke-width="0.432" x2="12.59"/>
<line class="other" stroke="#000000" stroke-linecap="round" y1="20.5327" x1="11.9153" y2="18.7866" stroke-width="0.432" x2="8.42306"/>
<line class="other" stroke="#000000" stroke-linecap="round" y1="21.5901" x1="11.87" y2="21.5901" stroke-width="0.72" x2="14.03"/>
<line class="other" stroke="#000000" stroke-linecap="round" y1="21.5901" x1="14.03" y2="19.7901" stroke-width="0.72" x2="12.59"/>
<line class="other" stroke="#000000" stroke-linecap="round" y1="19.7901" x1="12.59" y2="21.2301" stroke-width="0.72" x2="11.87"/>
<line class="other" stroke="#000000" stroke-linecap="round" y1="21.2301" x1="11.87" y2="21.2301" stroke-width="0.72" x2="12.95"/>
<line class="other" stroke="#000000" stroke-linecap="round" y1="21.2301" x1="12.95" y2="20.5101" stroke-width="0.72" x2="12.59"/>
<rect width="2.16" x="6.82999" y="7.55002" class="other" fill="#000000" height="14.4001" stroke="none" stroke-linecap="round" stroke-width="0"/>
<line class="pin" connectorname="B" stroke="#787878" id="connector0pin" stroke-linecap="round" y1="14.75" x1="0.349999" y2="14.75" stroke-width="0.699999" x2="7.54999"/>
<g width="0.000283465" x="0.349999" y="14.75" class="terminal" fill="none" height="0.000283466" stroke="none" id="connector0terminal" stroke-width="0"/>
<text x="3.94999" y="13.7001" class="text" font-family="'Droid Sans'" fill="#8c8c8c" text-anchor="middle" stroke="none" stroke-width="0" font-size="2.5">1</text>
<line class="pin" connectorname="E" stroke="#787878" id="connector2pin" stroke-linecap="round" y1="29.1502" x1="14.75" y2="21.9501" stroke-width="0.699999" x2="14.75"/>
<g width="0.000283465" x="14.75" y="29.1502" class="terminal" fill="none" height="0.000283466" stroke="none" id="connector2terminal" stroke-width="0"/>
<g transform="matrix(1, 0, 0, 1, 13.7, 25.5501)">
<g>
<g transform="rotate(270)">
<g>
<text x="0" y="0" class="text" font-family="'Droid Sans'" fill="#8c8c8c" text-anchor="middle" stroke="none" stroke-width="0" font-size="2.5">2</text>
</g>
</g>
</g>
</g>
<line class="pin" connectorname="C" stroke="#787878" id="connector1pin" stroke-linecap="round" y1="0.350001" x1="14.75" y2="7.55002" stroke-width="0.699999" x2="14.75"/>
<g width="0.000283465" x="14.75" y="0.350001" class="terminal" fill="none" height="0.000283466" stroke="none" id="connector1terminal" stroke-width="0"/>
<g transform="matrix(1, 0, 0, 1, 13.7, 3.95001)">
<g>
<g transform="rotate(270)">
<g>
<text x="0" y="0" class="text" font-family="'Droid Sans'" fill="#8c8c8c" text-anchor="middle" stroke="none" stroke-width="0" font-size="2.5">3</text>
</g>
</g>
</g>
</g>
</g>
</g></g><g partID='56440'><g transform='translate(67.8615,71.3565)' ><g transform='matrix(-1,0,0,1,0,0)'  ><g id="schematic">
<g>
<path d="M13.5,14.966L9.9,14.966c-0.193,0,-0.35,-0.156,-0.35,-0.35s0.156,-0.35,0.35,-0.35L13.5,14.266c0.193,0,0.35,0.156,0.35,0.35S13.694,14.966,13.5,14.966z"/>
</g>
<g>
<path d="M9.9,14.966L6.3,14.966c-0.193,0,-0.35,-0.156,-0.35,-0.35s0.157,-0.35,0.35,-0.35l3.6,0c0.193,0,0.35,0.156,0.35,0.35S10.093,14.966,9.9,14.966z"/>
</g>
<g>
<polygon fill="#FFFFFF" points="9.9,14.616,6.3,7.416,9.9,7.416,13.5,7.416"/>
<path d="M9.9,15.398L5.734,7.066l8.333,0L9.9,15.398zM6.866,7.766L9.9,13.834l3.034,-6.068L6.866,7.766z"/>
</g>
<g>
<path d="M9.9,14.841c-0.124,0,-0.225,-0.101,-0.225,-0.225l0,-7.2c0,-0.124,0.101,-0.225,0.225,-0.225s0.225,0.101,0.225,0.225l0,7.2C10.124,14.74,10.024,14.841,9.9,14.841z"/>
</g>
<g>
<path d="M1.8,12.141c-0.058,0,-0.115,-0.021,-0.159,-0.065c-0.088,-0.088,-0.088,-0.23,0,-0.318l2.34,-2.341c0.088,-0.088,0.23,-0.088,0.318,0s0.088,0.23,0,0.318l-2.34,2.341C1.915,12.12,1.858,12.141,1.8,12.141z"/>
</g>
<g>
<path d="M2.16,15.381c-0.058,0,-0.115,-0.021,-0.159,-0.065c-0.088,-0.088,-0.088,-0.23,0,-0.318l2.34,-2.34c0.088,-0.088,0.23,-0.088,0.318,0s0.088,0.23,0,0.318l-2.34,2.34C2.276,15.359,2.218,15.381,2.16,15.381z"/>
</g>
<g id="connector0pin">
<path fill="#787878" d="M9.9,22.166c-0.193,0,-0.35,-0.156,-0.35,-0.35l0,-7.2c0,-0.193,0.156,-0.35,0.35,-0.35s0.35,0.156,0.35,0.35l0,7.2C10.249,22.01,10.093,22.166,9.9,22.166z"/>
</g>
<g id="connector0terminal">
<rect width="0.001" x="9.9" y="21.816" fill="none" height="0.001"/>
</g>
<g transform="matrix(1, 0, 0, 1, 3.429, 6.4262)">
<g>
<g transform="rotate(270)">
<g>
<g enable-background="new    ">
<path fill="#787878" d="M-11.647,5.54l-0.891,0L-12.538,5.388l0.342,-0.372c0.049,-0.053,0.093,-0.101,0.131,-0.145s0.071,-0.086,0.099,-0.128c0.026,-0.042,0.047,-0.084,0.062,-0.125c0.015,-0.043,0.021,-0.088,0.021,-0.138c0,-0.038,-0.005,-0.072,-0.017,-0.102s-0.027,-0.054,-0.047,-0.075c-0.021,-0.02,-0.045,-0.035,-0.073,-0.046s-0.06,-0.016,-0.094,-0.016c-0.062,0,-0.118,0.013,-0.167,0.038c-0.051,0.024,-0.098,0.057,-0.143,0.096l-0.1,-0.116c0.025,-0.023,0.055,-0.046,0.084,-0.065c0.029,-0.021,0.063,-0.039,0.097,-0.054s0.071,-0.026,0.109,-0.036c0.038,-0.008,0.079,-0.013,0.121,-0.013c0.063,0,0.119,0.009,0.169,0.026c0.051,0.018,0.094,0.043,0.129,0.076c0.035,0.032,0.063,0.072,0.082,0.119c0.019,0.048,0.028,0.101,0.028,0.16c0,0.056,-0.009,0.108,-0.026,0.158c-0.017,0.05,-0.041,0.1,-0.07,0.148c-0.031,0.048,-0.066,0.097,-0.109,0.146c-0.041,0.049,-0.087,0.1,-0.136,0.152L-12.32,5.37l0,0.008l0.673,0L-11.647,5.54z"/>
</g>
</g>
</g>
</g>
</g>
<g id="connector1pin">
<path fill="#787878" d="M9.9,7.766c-0.193,0,-0.35,-0.157,-0.35,-0.35l0,-7.2c0,-0.193,0.156,-0.35,0.35,-0.35s0.35,0.157,0.35,0.35l0,7.2C10.249,7.609,10.093,7.766,9.9,7.766z"/>
</g>
<g id="connector1terminal">
<polygon fill="none" points="9.9,0.216,9.901,0.216,9.901,0.216"/>
</g>
<g transform="matrix(1, 0, 0, 1, 3.429, 1.3462)">
<g>
<g transform="rotate(270)">
<g>
<g enable-background="new    ">
<path fill="#787878" d="M-2.616,5.54l-0.172,0L-2.788,4.648c0,-0.028,0,-0.058,0,-0.09s0.001,-0.063,0.002,-0.095c0.001,-0.032,0.002,-0.063,0.003,-0.092c0.001,-0.028,0.002,-0.054,0.002,-0.076c-0.011,0.012,-0.021,0.021,-0.029,0.03s-0.017,0.017,-0.026,0.024s-0.018,0.016,-0.028,0.025c-0.01,0.008,-0.021,0.019,-0.035,0.03l-0.145,0.118l-0.094,-0.12l0.374,-0.292l0.146,0L-2.618,5.54z"/>
</g>
</g>
</g>
</g>
</g>
<g>
<path d="M0.18,13.536l1.08,-2.521l1.44,1.438L0.18,13.536z"/>
</g>
<g>
<path d="M0.54,16.776l1.08,-2.521l1.438,1.438L0.54,16.776z"/>
</g>
</g>
</g></g></g><g partID='56470'><g transform='translate(61.0571,42.4229)' ><g transform='matrix(0,1,-1,0,0,0)'  ><g xmlns="http://www.w3.org/2000/svg" id="schematic">
<line class="other" xmlns="http://www.w3.org/2000/svg" stroke="#000000" stroke-linecap="round" y1="3.096" x1="7.55002" y2="0.216" stroke-width="0.432002" x2="8.63003"/>
<line class="other" xmlns="http://www.w3.org/2000/svg" stroke="#000000" stroke-linecap="round" y1="0.216" x1="8.63003" y2="5.976" stroke-width="0.432002" x2="10.43"/>
<line class="other" xmlns="http://www.w3.org/2000/svg" stroke="#000000" stroke-linecap="round" y1="5.976" x1="10.43" y2="0.216" stroke-width="0.432002" x2="12.23"/>
<line class="other" xmlns="http://www.w3.org/2000/svg" stroke="#000000" stroke-linecap="round" y1="0.216" x1="12.23" y2="5.976" stroke-width="0.432002" x2="14.03"/>
<line class="other" xmlns="http://www.w3.org/2000/svg" stroke="#000000" stroke-linecap="round" y1="5.976" x1="14.03" y2="0.216" stroke-width="0.432002" x2="15.8301"/>
<line class="other" xmlns="http://www.w3.org/2000/svg" stroke="#000000" stroke-linecap="round" y1="0.216" x1="15.8301" y2="5.976" stroke-width="0.432002" x2="17.6301"/>
<line class="other" xmlns="http://www.w3.org/2000/svg" stroke="#000000" stroke-linecap="round" y1="5.976" x1="17.6301" y2="0.216" stroke-width="0.432002" x2="19.4301"/>
<line class="other" xmlns="http://www.w3.org/2000/svg" stroke="#000000" stroke-linecap="round" y1="0.216" x1="19.4301" y2="5.976" stroke-width="0.432002" x2="21.2301"/>
<line class="other" xmlns="http://www.w3.org/2000/svg" stroke="#000000" stroke-linecap="round" y1="5.976" x1="21.2301" y2="3.096" stroke-width="0.432002" x2="21.9501"/>
<line class="pin" xmlns="http://www.w3.org/2000/svg" connectorname="2" stroke="#787878" id="connector1pin" stroke-linecap="round" y1="3.096" x1="29.1502" y2="3.096" stroke-width="0.700001" x2="21.9501"/>
<g width="0.000283466" x="29.1502" y="3.096" class="terminal" fill="none" xmlns="http://www.w3.org/2000/svg" height="0.000283465" stroke="none" id="connector1terminal" stroke-width="0"/>
<text x="25.5501" y="2.046" class="text" font-family="'Droid Sans'" fill="#8c8c8c" xmlns="http://www.w3.org/2000/svg" text-anchor="middle" stroke="none" stroke-width="0" font-size="2.50001">2</text>
<line class="pin" xmlns="http://www.w3.org/2000/svg" connectorname="1" stroke="#787878" id="connector0pin" stroke-linecap="round" y1="3.096" x1="0.350001" y2="3.096" stroke-width="0.700001" x2="7.55002"/>
<g width="0.000283466" x="0.350001" y="3.096" class="terminal" fill="none" xmlns="http://www.w3.org/2000/svg" height="0.000283465" stroke="none" id="connector0terminal" stroke-width="0"/>
<text x="3.95001" y="2.046" class="text" font-family="'Droid Sans'" fill="#8c8c8c" xmlns="http://www.w3.org/2000/svg" text-anchor="middle" stroke="none" stroke-width="0" font-size="2.50001">1</text>
</g>
</g></g></g><g partID='56540'><g transform='translate(50.7795,0)' ><g id="schematic">
<line fill="none" stroke="#787878" id="connector0pin" stroke-linecap="round" y1="6.78" stroke-width="0.75" x1="7.2" y2="13.98" x2="7.2" stroke-miterlimit="10"/>
<g fill="none" points="6.817,13.567,7.546,13.546,7.546,14.4,6.859,14.359" id="connector0terminal"/>
<path fill="none" stroke="#000000" stroke-linecap="round" stroke-width="0.9" d="M0.45,6.564l13.5,0"/>
<g transform="matrix(1, 0, 0, 1, 1.4985, 4.9878)">
<text font-family="'DroidSans'" id="label" font-size="4.4991">5V</text>
</g>
</g>
</g></g><g partID='56570'><g transform='translate(50.7605,179.097)' ><g xmlns="http://www.w3.org/2000/svg" id="schematic">
<path fill="none" xmlns="http://www.w3.org/2000/svg" stroke="#787878" id="connector0pin" stroke-linecap="round" stroke-width="0.75" d="M7.201,7.575l0,-7.2"/>
<g width="0.945" x="6.728" y="0" fill="none" xmlns="http://www.w3.org/2000/svg" height="0.953" id="connector0terminal"/>
<path fill="none" xmlns="http://www.w3.org/2000/svg" stroke="#000000" id="path4098" stroke-linecap="round" stroke-width="0.9" d="M0.5,7.711L13.9,7.711"/>
<path fill="none" xmlns="http://www.w3.org/2000/svg" stroke="#000000" id="path4100" stroke-linecap="round" stroke-width="0.9" d="M2.732,10.456l8.935,0"/>
<path fill="none" xmlns="http://www.w3.org/2000/svg" stroke="#000000" id="path4102" stroke-linecap="round" stroke-width="0.9" d="M9.431,13.175L4.967,13.175"/>
</g>
</g></g><g partID='56630'><g transform='translate(15.121,60.423)' ><g transform='matrix(0,1,-1,0,0,0)'  ><g id="schematic">
<path fill="#FFFFFF" stroke="#000000" stroke-width="0.9" d="M29.15,0.36c3.977,0,7.2,3.223,7.201,7.199c0.001,3.976,-3.223,7.2,-7.199,7.201c0,0,-0.001,0,-0.002,0l-14.4,0c-3.977,0.001,-7.2,-3.223,-7.201,-7.199c0,-3.977,3.223,-7.2,7.199,-7.201c0.001,0,0.001,0,0.002,0L29.15,0.36z"/>
<line fill="none" stroke="#000000" stroke-linecap="round" y1="0.36" stroke-width="0.5" x1="17.63" y2="1.8" x2="17.63"/>
<path fill="none" stroke="#000000" stroke-width="0.5" d="M17.63,1.8c0,0.795,0.646,1.44,1.44,1.44"/>
<line fill="none" stroke="#000000" stroke-linecap="round" y1="3.24" stroke-width="0.5" x1="19.07" y2="3.24" x2="25.55"/>
<path fill="none" stroke="#000000" stroke-width="0.5" d="M25.55,3.24c0.597,0,1.081,0.483,1.081,1.08c0,0.596,-0.483,1.08,-1.08,1.08c0,0,0,0,-0.001,0"/>
<line fill="none" stroke="#000000" stroke-linecap="round" y1="5.4" stroke-width="0.5" x1="18.35" y2="5.4" x2="25.55"/>
<path fill="none" stroke="#000000" stroke-width="0.5" d="M18.35,7.56c-0.597,0,-1.08,-0.483,-1.08,-1.08s0.483,-1.08,1.08,-1.08l0,0"/>
<line fill="none" stroke="#000000" stroke-linecap="round" y1="7.56" stroke-width="0.5" x1="18.35" y2="7.56" x2="25.55"/>
<path fill="none" stroke="#000000" stroke-width="0.5" d="M25.55,7.56c0.597,0,1.081,0.483,1.081,1.079c0.001,0.597,-0.482,1.081,-1.079,1.081c-0.001,0,-0.001,0,-0.002,0"/>
<line fill="none" stroke="#000000" stroke-linecap="round" y1="9.72" stroke-width="0.5" x1="18.35" y2="9.72" x2="25.55"/>
<path fill="none" stroke="#000000" stroke-width="0.5" d="M18.35,11.88c-0.597,0,-1.08,-0.484,-1.08,-1.08c0,-0.597,0.483,-1.08,1.08,-1.08l0,0"/>
<line fill="none" stroke="#000000" stroke-linecap="round" y1="11.88" stroke-width="0.5" x1="18.35" y2="11.88" x2="24.83"/>
<path fill="none" stroke="#000000" stroke-width="0.5" d="M26.27,13.32c0,-0.795,-0.645,-1.439,-1.44,-1.439l0,0"/>
<line fill="none" stroke="#000000" stroke-linecap="round" y1="13.32" stroke-width="0.5" x1="26.27" y2="14.76" x2="26.27"/>
<line fill="none" stroke="#787878" id="connector0pin" stroke-linecap="round" y1="7.56" stroke-width="0.75" x1="0.35" y2="7.56" x2="7.55"/>
<g width="0" x="0.35" y="7.56" fill="none" height="0" id="connector0terminal"/>
<g transform="matrix(1, 0, 0, 1, 3.2615, 6.5103)">
<text fill="#8C8C8C" font-family="'DroidSans'" font-size="2.5">1</text>
</g>
<line fill="none" stroke="#787878" id="connector1pin" stroke-linecap="round" y1="7.56" stroke-width="0.75" x1="43.551" y2="7.56" x2="36.35"/>
<g width="0" x="43.551" y="7.56" fill="none" height="0" id="connector1terminal"/>
<g transform="matrix(1, 0, 0, 1, 39.2615, 6.5103)">
<text fill="#8C8C8C" font-family="'DroidSans'" font-size="2.5">2</text>
</g>
</g>
</g></g></g><g partID='58420'><g transform='translate(10.6571,114.423)' ><g transform='matrix(0,1,-1,0,0,0)'  ><g xmlns="http://www.w3.org/2000/svg" id="schematic">
<line class="other" xmlns="http://www.w3.org/2000/svg" stroke="#000000" stroke-linecap="round" y1="3.096" x1="7.55002" y2="0.216" stroke-width="0.432002" x2="8.63003"/>
<line class="other" xmlns="http://www.w3.org/2000/svg" stroke="#000000" stroke-linecap="round" y1="0.216" x1="8.63003" y2="5.976" stroke-width="0.432002" x2="10.43"/>
<line class="other" xmlns="http://www.w3.org/2000/svg" stroke="#000000" stroke-linecap="round" y1="5.976" x1="10.43" y2="0.216" stroke-width="0.432002" x2="12.23"/>
<line class="other" xmlns="http://www.w3.org/2000/svg" stroke="#000000" stroke-linecap="round" y1="0.216" x1="12.23" y2="5.976" stroke-width="0.432002" x2="14.03"/>
<line class="other" xmlns="http://www.w3.org/2000/svg" stroke="#000000" stroke-linecap="round" y1="5.976" x1="14.03" y2="0.216" stroke-width="0.432002" x2="15.8301"/>
<line class="other" xmlns="http://www.w3.org/2000/svg" stroke="#000000" stroke-linecap="round" y1="0.216" x1="15.8301" y2="5.976" stroke-width="0.432002" x2="17.6301"/>
<line class="other" xmlns="http://www.w3.org/2000/svg" stroke="#000000" stroke-linecap="round" y1="5.976" x1="17.6301" y2="0.216" stroke-width="0.432002" x2="19.4301"/>
<line class="other" xmlns="http://www.w3.org/2000/svg" stroke="#000000" stroke-linecap="round" y1="0.216" x1="19.4301" y2="5.976" stroke-width="0.432002" x2="21.2301"/>
<line class="other" xmlns="http://www.w3.org/2000/svg" stroke="#000000" stroke-linecap="round" y1="5.976" x1="21.2301" y2="3.096" stroke-width="0.432002" x2="21.9501"/>
<line class="pin" xmlns="http://www.w3.org/2000/svg" connectorname="2" stroke="#787878" id="connector1pin" stroke-linecap="round" y1="3.096" x1="29.1502" y2="3.096" stroke-width="0.700001" x2="21.9501"/>
<g width="0.000283466" x="29.1502" y="3.096" class="terminal" fill="none" xmlns="http://www.w3.org/2000/svg" height="0.000283465" stroke="none" id="connector1terminal" stroke-width="0"/>
<text x="25.5501" y="2.046" class="text" font-family="'Droid Sans'" fill="#8c8c8c" xmlns="http://www.w3.org/2000/svg" text-anchor="middle" stroke="none" stroke-width="0" font-size="2.50001">2</text>
<line class="pin" xmlns="http://www.w3.org/2000/svg" connectorname="1" stroke="#787878" id="connector0pin" stroke-linecap="round" y1="3.096" x1="0.350001" y2="3.096" stroke-width="0.700001" x2="7.55002"/>
<g width="0.000283466" x="0.350001" y="3.096" class="terminal" fill="none" xmlns="http://www.w3.org/2000/svg" height="0.000283465" stroke="none" id="connector0terminal" stroke-width="0"/>
<text x="3.95001" y="2.046" class="text" font-family="'Droid Sans'" fill="#8c8c8c" xmlns="http://www.w3.org/2000/svg" text-anchor="middle" stroke="none" stroke-width="0" font-size="2.50001">1</text>
</g>
</g></g></g><g partID='61840'><g transform='translate(72.3611,21.1731)' ><g id="schematic">
<rect width="56.7" x="14.85" y="14.85" class="interior rect" fill="#FFFFFF" height="128.7" stroke="#000000" stroke-linecap="round" stroke-width="0.9"/>
<line class="pin" fill="none" stroke="none" stroke-linecap="round" id="connector45pin" y1="28.8" x1="71.6499" y2="28.8" stroke-width="0" x2="86.0499"/>
<g width="0.699999" x="86.0499" y="28.4499" class="terminal" fill="none" height="0.699999" stroke="none" id="connector45terminal" stroke-width="0"/>
<line class="pin" fill="none" stroke="#787878" stroke-linecap="round" id="connector57pin" y1="28.8" x1="71.6499" y2="28.8" stroke-width="0.699999" x2="86.0499"/>
<text x="70.2499" y="29.4999" class="text" font-family="'Droid Sans'" fill="#8c8c8c" text-anchor="end" stroke="none" stroke-width="0" font-size="3.49999">D13/SCK</text>
<rect width="0.699999" x="86.0499" y="28.4499" class="terminal" fill="none" height="0.699999" stroke="none" id="connector57terminal" stroke-width="0"/>
<line class="pin" fill="none" stroke="none" stroke-linecap="round" id="connector30pin" y1="36" x1="71.6499" y2="36" stroke-width="0" x2="86.0499"/>
<g width="0.699999" x="86.0499" y="35.6499" class="terminal" fill="none" height="0.699999" stroke="none" id="connector30terminal" stroke-width="0"/>
<line class="pin" fill="none" stroke="#787878" stroke-linecap="round" id="connector55pin" y1="36" x1="71.6499" y2="36" stroke-width="0.699999" x2="86.0499"/>
<text x="70.2499" y="36.6999" class="text" font-family="'Droid Sans'" fill="#8c8c8c" text-anchor="end" stroke="none" stroke-width="0" font-size="3.49999">D12/MISO</text>
<rect width="0.699999" x="86.0499" y="35.6499" class="terminal" fill="none" height="0.699999" stroke="none" id="connector55terminal" stroke-width="0"/>
<line class="pin" fill="none" stroke="none" stroke-linecap="round" id="connector29pin" y1="43.2" x1="71.6499" y2="43.2" stroke-width="0" x2="86.0499"/>
<g width="0.699999" x="86.0499" y="42.8499" class="terminal" fill="none" height="0.699999" stroke="none" id="connector29terminal" stroke-width="0"/>
<line class="pin" fill="none" stroke="#787878" stroke-linecap="round" id="connector58pin" y1="43.2" x1="71.6499" y2="43.2" stroke-width="0.699999" x2="86.0499"/>
<text x="70.2499" y="43.8999" class="text" font-family="'Droid Sans'" fill="#8c8c8c" text-anchor="end" stroke="none" stroke-width="0" font-size="3.49999">D11/MOSI</text>
<rect width="0.699999" x="86.0499" y="42.8499" class="terminal" fill="none" height="0.699999" stroke="none" id="connector58terminal" stroke-width="0"/>
<line class="pin" fill="none" stroke="#787878" stroke-linecap="round" id="connector28pin" y1="50.4" x1="71.6499" y2="50.4" stroke-width="0.699999" x2="86.0499"/>
<text x="70.2499" y="51.0999" class="text" font-family="'Droid Sans'" fill="#8c8c8c" text-anchor="end" stroke="none" stroke-width="0" font-size="3.49999">D10</text>
<g width="0.699999" x="86.0499" y="50.0499" class="terminal" fill="none" height="0.699999" stroke="none" id="connector28terminal" stroke-width="0"/>
<line class="pin" fill="none" stroke="#787878" stroke-linecap="round" id="connector27pin" y1="57.6" x1="71.6499" y2="57.6" stroke-width="0.699999" x2="86.0499"/>
<text x="70.2499" y="58.2999" class="text" font-family="'Droid Sans'" fill="#8c8c8c" text-anchor="end" stroke="none" stroke-width="0" font-size="3.49999">D9</text>
<g width="0.699999" x="86.0499" y="57.2499" class="terminal" fill="none" height="0.699999" stroke="none" id="connector27terminal" stroke-width="0"/>
<line class="pin" fill="none" stroke="#787878" stroke-linecap="round" id="connector26pin" y1="64.8" x1="71.6499" y2="64.8" stroke-width="0.699999" x2="86.0499"/>
<text x="70.2499" y="65.4999" class="text" font-family="'Droid Sans'" fill="#8c8c8c" text-anchor="end" stroke="none" stroke-width="0" font-size="3.49999">D8</text>
<g width="0.699999" x="86.0499" y="64.4499" class="terminal" fill="none" height="0.699999" stroke="none" id="connector26terminal" stroke-width="0"/>
<line class="pin" fill="none" stroke="#787878" stroke-linecap="round" id="connector25pin" y1="72" x1="71.6499" y2="72" stroke-width="0.699999" x2="86.0499"/>
<text x="70.2499" y="72.6999" class="text" font-family="'Droid Sans'" fill="#8c8c8c" text-anchor="end" stroke="none" stroke-width="0" font-size="3.49999">D7</text>
<g width="0.699999" x="86.0499" y="71.6499" class="terminal" fill="none" height="0.699999" stroke="none" id="connector25terminal" stroke-width="0"/>
<line class="pin" fill="none" stroke="#787878" stroke-linecap="round" id="connector24pin" y1="79.2" x1="71.6499" y2="79.2" stroke-width="0.699999" x2="86.0499"/>
<text x="70.2499" y="79.8999" class="text" font-family="'Droid Sans'" fill="#8c8c8c" text-anchor="end" stroke="none" stroke-width="0" font-size="3.49999">D6</text>
<g width="0.699999" x="86.0499" y="78.8499" class="terminal" fill="none" height="0.699999" stroke="none" id="connector24terminal" stroke-width="0"/>
<line class="pin" fill="none" stroke="#787878" stroke-linecap="round" id="connector23pin" y1="86.4" x1="71.6499" y2="86.4" stroke-width="0.699999" x2="86.0499"/>
<text x="70.2499" y="87.0999" class="text" font-family="'Droid Sans'" fill="#8c8c8c" text-anchor="end" stroke="none" stroke-width="0" font-size="3.49999">D5</text>
<g width="0.699999" x="86.0499" y="86.0499" class="terminal" fill="none" height="0.699999" stroke="none" id="connector23terminal" stroke-width="0"/>
<line class="pin" fill="none" stroke="#787878" stroke-linecap="round" id="connector22pin" y1="93.6" x1="71.6499" y2="93.6" stroke-width="0.699999" x2="86.0499"/>
<text x="70.2499" y="94.2999" class="text" font-family="'Droid Sans'" fill="#8c8c8c" text-anchor="end" stroke="none" stroke-width="0" font-size="3.49999">D4</text>
<g width="0.699999" x="86.0499" y="93.2499" class="terminal" fill="none" height="0.699999" stroke="none" id="connector22terminal" stroke-width="0"/>
<line class="pin" fill="none" stroke="#787878" stroke-linecap="round" id="connector21pin" y1="100.8" x1="71.6499" y2="100.8" stroke-width="0.699999" x2="86.0499"/>
<text x="70.2499" y="101.5" class="text" font-family="'Droid Sans'" fill="#8c8c8c" text-anchor="end" stroke="none" stroke-width="0" font-size="3.49999">D3</text>
<g width="0.699999" x="86.0499" y="100.45" class="terminal" fill="none" height="0.699999" stroke="none" id="connector21terminal" stroke-width="0"/>
<line class="pin" fill="none" stroke="#787878" stroke-linecap="round" id="connector20pin" y1="108" x1="71.6499" y2="108" stroke-width="0.699999" x2="86.0499"/>
<text x="70.2499" y="108.7" class="text" font-family="'Droid Sans'" fill="#8c8c8c" text-anchor="end" stroke="none" stroke-width="0" font-size="3.49999">D2</text>
<g width="0.699999" x="86.0499" y="107.65" class="terminal" fill="none" height="0.699999" stroke="none" id="connector20terminal" stroke-width="0"/>
<line class="pin" fill="none" stroke="#787878" stroke-linecap="round" id="connector16pin" y1="122.4" x1="71.6499" y2="122.4" stroke-width="0.699999" x2="86.0499"/>
<text x="70.2499" y="123.1" class="text" font-family="'Droid Sans'" fill="#8c8c8c" text-anchor="end" stroke="none" stroke-width="0" font-size="3.49999">D1/TX</text>
<g width="0.699999" x="86.0499" y="122.05" class="terminal" fill="none" height="0.699999" stroke="none" id="connector16terminal" stroke-width="0"/>
<line class="pin" fill="none" stroke="#787878" stroke-linecap="round" id="connector17pin" y1="129.6" x1="71.6499" y2="129.6" stroke-width="0.699999" x2="86.0499"/>
<text x="70.2499" y="130.3" class="text" font-family="'Droid Sans'" fill="#8c8c8c" text-anchor="end" stroke="none" stroke-width="0" font-size="3.49999">D0/RX</text>
<g width="0.699999" x="86.0499" y="129.25" class="terminal" fill="none" height="0.699999" stroke="none" id="connector17terminal" stroke-width="0"/>
<line class="pin" fill="none" stroke="none" stroke-linecap="round" id="connector33pin" y1="28.8" x1="0.349999" y2="28.8" stroke-width="0" x2="14.75"/>
<g width="0.699999" x="-0.349999" y="28.4499" class="terminal" fill="none" height="0.699999" stroke="none" id="connector33terminal" stroke-width="0"/>
<line class="pin" fill="none" stroke="none" stroke-linecap="round" id="connector18pin" y1="28.8" x1="0.349999" y2="28.8" stroke-width="0" x2="14.75"/>
<g width="0.699999" x="-0.349999" y="28.4499" class="terminal" fill="none" height="0.699999" stroke="none" id="connector18terminal" stroke-width="0"/>
<line class="pin" fill="none" stroke="#787878" stroke-linecap="round" id="connector59pin" y1="28.8" x1="0.349999" y2="28.8" stroke-width="0.699999" x2="14.75"/>
<text x="16.15" y="29.4999" class="text" font-family="'Droid Sans'" fill="#8c8c8c" text-anchor="start" stroke="none" stroke-width="0" font-size="3.49999">RESET</text>
<rect width="0.699999" x="-0.349999" y="28.4499" class="terminal" fill="none" height="0.699999" stroke="none" id="connector59terminal" stroke-width="0"/>
<line class="pin" fill="none" stroke="#787878" stroke-linecap="round" id="connector43pin" y1="36" x1="0.349999" y2="36" stroke-width="0.699999" x2="14.75"/>
<text x="16.15" y="36.6999" class="text" font-family="'Droid Sans'" fill="#8c8c8c" text-anchor="start" stroke="none" stroke-width="0" font-size="3.49999">AREF</text>
<g width="0.699999" x="-0.349999" y="35.6499" class="terminal" fill="none" height="0.699999" stroke="none" id="connector43terminal" stroke-width="0"/>
<line class="pin" fill="none" stroke="#787878" stroke-linecap="round" id="connector42pin" y1="50.4" x1="0.349999" y2="50.4" stroke-width="0.699999" x2="14.75"/>
<text x="16.15" y="51.0999" class="text" font-family="'Droid Sans'" fill="#8c8c8c" text-anchor="start" stroke="none" stroke-width="0" font-size="3.49999">A0</text>
<g width="0.699999" x="-0.349999" y="50.0499" class="terminal" fill="none" height="0.699999" stroke="none" id="connector42terminal" stroke-width="0"/>
<line class="pin" fill="none" stroke="#787878" stroke-linecap="round" id="connector41pin" y1="57.6" x1="0.349999" y2="57.6" stroke-width="0.699999" x2="14.75"/>
<text x="16.15" y="58.2999" class="text" font-family="'Droid Sans'" fill="#8c8c8c" text-anchor="start" stroke="none" stroke-width="0" font-size="3.49999">A1</text>
<g width="0.699999" x="-0.349999" y="57.2499" class="terminal" fill="none" height="0.699999" stroke="none" id="connector41terminal" stroke-width="0"/>
<line class="pin" fill="none" stroke="#787878" stroke-linecap="round" id="connector40pin" y1="64.8" x1="0.349999" y2="64.8" stroke-width="0.699999" x2="14.75"/>
<text x="16.15" y="65.4999" class="text" font-family="'Droid Sans'" fill="#8c8c8c" text-anchor="start" stroke="none" stroke-width="0" font-size="3.49999">A2</text>
<g width="0.699999" x="-0.349999" y="64.4499" class="terminal" fill="none" height="0.699999" stroke="none" id="connector40terminal" stroke-width="0"/>
<line class="pin" fill="none" stroke="#787878" stroke-linecap="round" id="connector39pin" y1="72" x1="0.349999" y2="72" stroke-width="0.699999" x2="14.75"/>
<text x="16.15" y="72.6999" class="text" font-family="'Droid Sans'" fill="#8c8c8c" text-anchor="start" stroke="none" stroke-width="0" font-size="3.49999">A3</text>
<g width="0.699999" x="-0.349999" y="71.6499" class="terminal" fill="none" height="0.699999" stroke="none" id="connector39terminal" stroke-width="0"/>
<line class="pin" fill="none" stroke="#787878" stroke-linecap="round" id="connector38pin" y1="79.2" x1="0.349999" y2="79.2" stroke-width="0.699999" x2="14.75"/>
<text x="16.15" y="79.8999" class="text" font-family="'Droid Sans'" fill="#8c8c8c" text-anchor="start" stroke="none" stroke-width="0" font-size="3.49999">A4</text>
<g width="0.699999" x="-0.349999" y="78.8499" class="terminal" fill="none" height="0.699999" stroke="none" id="connector38terminal" stroke-width="0"/>
<line class="pin" fill="none" stroke="#787878" stroke-linecap="round" id="connector37pin" y1="86.4" x1="0.349999" y2="86.4" stroke-width="0.699999" x2="14.75"/>
<text x="16.15" y="87.0999" class="text" font-family="'Droid Sans'" fill="#8c8c8c" text-anchor="start" stroke="none" stroke-width="0" font-size="3.49999">A5</text>
<g width="0.699999" x="-0.349999" y="86.0499" class="terminal" fill="none" height="0.699999" stroke="none" id="connector37terminal" stroke-width="0"/>
<line class="pin" fill="none" stroke="#787878" stroke-linecap="round" id="connector36pin" y1="93.6" x1="0.349999" y2="93.6" stroke-width="0.699999" x2="14.75"/>
<text x="16.15" y="94.2999" class="text" font-family="'Droid Sans'" fill="#8c8c8c" text-anchor="start" stroke="none" stroke-width="0" font-size="3.49999">A6</text>
<g width="0.699999" x="-0.349999" y="93.2499" class="terminal" fill="none" height="0.699999" stroke="none" id="connector36terminal" stroke-width="0"/>
<line class="pin" fill="none" stroke="#787878" stroke-linecap="round" id="connector35pin" y1="100.8" x1="0.349999" y2="100.8" stroke-width="0.699999" x2="14.75"/>
<text x="16.15" y="101.5" class="text" font-family="'Droid Sans'" fill="#8c8c8c" text-anchor="start" stroke="none" stroke-width="0" font-size="3.49999">A7</text>
<g width="0.699999" x="-0.349999" y="100.45" class="terminal" fill="none" height="0.699999" stroke="none" id="connector35terminal" stroke-width="0"/>
<line class="pin" fill="none" stroke="none" stroke-linecap="round" id="connector19pin" y1="143.65" x1="43.2" y2="158.05" stroke-width="0" x2="43.2"/>
<g width="0.699999" x="42.8499" y="158.05" class="terminal" fill="none" height="0.699999" stroke="none" id="connector19terminal" stroke-width="0"/>
<line class="pin" fill="none" stroke="none" stroke-linecap="round" id="connector32pin" y1="143.65" x1="43.2" y2="158.05" stroke-width="0" x2="43.2"/>
<g width="0.699999" x="42.8499" y="158.05" class="terminal" fill="none" height="0.699999" stroke="none" id="connector32terminal" stroke-width="0"/>
<line class="pin" fill="none" stroke="#787878" stroke-linecap="round" id="connector60pin" y1="143.65" x1="43.2" y2="158.05" stroke-width="0.699999" x2="43.2"/>
<g transform="matrix(1, 0, 0, 1, 43.8999, 142.25)">
<g>
<g transform="rotate(270)">
<g>
<text x="0" y="0" class="text" font-family="'Droid Sans'" fill="#8c8c8c" text-anchor="start" stroke="none" stroke-width="0" font-size="3.49999">GND</text>
</g>
</g>
</g>
</g>
<rect width="0.699999" x="42.8499" y="158.05" class="terminal" fill="none" height="0.699999" stroke="none" id="connector60terminal" stroke-width="0"/>
<line class="pin" fill="none" stroke="#787878" stroke-linecap="round" id="connector31pin" y1="0.349999" x1="28.8" y2="14.75" stroke-width="0.699999" x2="28.8"/>
<g transform="matrix(1, 0, 0, 1, 29.4999, 16.15)">
<g>
<g transform="rotate(270)">
<g>
<text x="0" y="0" class="text" font-family="'Droid Sans'" fill="#8c8c8c" text-anchor="end" stroke="none" stroke-width="0" font-size="3.49999">VIN</text>
</g>
</g>
</g>
</g>
<g width="0.699999" x="28.4499" y="-0.349999" class="terminal" fill="none" height="0.699999" stroke="none" id="connector31terminal" stroke-width="0"/>
<line class="pin" fill="none" stroke="none" stroke-linecap="round" id="connector34pin" y1="0.349999" x1="43.2" y2="14.75" stroke-width="0" x2="43.2"/>
<g width="0.699999" x="42.8499" y="-0.349999" class="terminal" fill="none" height="0.699999" stroke="none" id="connector34terminal" stroke-width="0"/>
<line class="pin" fill="none" stroke="#787878" stroke-linecap="round" id="connector56pin" y1="0.349999" x1="43.2" y2="14.75" stroke-width="0.699999" x2="43.2"/>
<g transform="matrix(1, 0, 0, 1, 43.8999, 16.15)">
<g>
<g transform="rotate(270)">
<g>
<text x="0" y="0" class="text" font-family="'Droid Sans'" fill="#8c8c8c" text-anchor="end" stroke="none" stroke-width="0" font-size="3.49999">5V</text>
</g>
</g>
</g>
</g>
<rect width="0.699999" x="42.8499" y="-0.349999" class="terminal" fill="none" height="0.699999" stroke="none" id="connector56terminal" stroke-width="0"/>
<line class="pin" fill="none" stroke="#787878" stroke-linecap="round" id="connector44pin" y1="0.349999" x1="57.6" y2="14.75" stroke-width="0.699999" x2="57.6"/>
<g transform="matrix(1, 0, 0, 1, 58.2999, 16.15)">
<g>
<g transform="rotate(270)">
<g>
<text x="0" y="0" class="text" font-family="'Droid Sans'" fill="#8c8c8c" text-anchor="end" stroke="none" stroke-width="0" font-size="3.49999">3V3</text>
</g>
</g>
</g>
</g>
<g width="0.699999" x="57.2499" y="-0.349999" class="terminal" fill="none" height="0.699999" stroke="none" id="connector44terminal" stroke-width="0"/>
<text x="43.6499" y="72.8498" class="text" font-family="'Droid Sans'" fill="#000000" text-anchor="middle" stroke="none" id="label" stroke-width="0" font-size="4.25001">Arduino</text>
<text x="43.6499" y="77.3833" class="text" font-family="'Droid Sans'" fill="#000000" text-anchor="middle" stroke="none" id="label" stroke-width="0" font-size="4.25001">Nano</text>
<text x="43.6499" y="81.9167" class="text" font-family="'Droid Sans'" fill="#000000" text-anchor="middle" stroke="none" id="label" stroke-width="0" font-size="4.25001">(Rev3.0)</text>
</g>
</g></g><g partID='58160'><line stroke-linecap='round' stroke='#404040' x1='43.561' y1='107.573' x2='7.43332' y2='107.55' stroke-width='0.699998' /></g><circle  fill="black" cx="7.43332" cy="107.55" r="1.44" stroke-width="0" stroke="none" /><g partID='58230'><line stroke-linecap='round' stroke='#404040' x1='7.43332' y1='107.55' x2='7.561' y2='100.373' stroke-width='0.699998' /></g><g partID='62320'><line stroke-linecap='round' stroke='#404040' x1='57.9991' y1='42.6968' x2='7.561' y2='42.773' stroke-width='0.699998' /></g><g partID='58330'><line stroke-linecap='round' stroke='#404040' x1='57.961' y1='13.973' x2='57.9991' y2='42.6968' stroke-width='0.699998' /></g><circle  fill="black" cx="57.961" cy="13.973" r="1.44" stroke-width="0" stroke="none" /><g partID='58360'><line stroke-linecap='round' stroke='#404040' x1='7.561' y1='42.773' x2='7.561' y2='64.373' stroke-width='0.699998' /></g><g partID='58450'><line stroke-linecap='round' stroke='#404040' x1='7.43332' y1='107.55' x2='7.561' y2='114.773' stroke-width='0.699998' /></g><g partID='61870'><line stroke-linecap='round' stroke='#404040' x1='57.961' y1='150.773' x2='7.561' y2='150.773' stroke-width='0.699998' /></g><circle  fill="black" cx="57.961" cy="150.773" r="1.44" stroke-width="0" stroke="none" /><g partID='58630'><line stroke-linecap='round' stroke='#404040' x1='7.561' y1='150.773' x2='7.561' y2='143.573' stroke-width='0.699998' /></g><g partID='58560'><line stroke-linecap='round' stroke='#404040' x1='57.961' y1='179.573' x2='57.961' y2='150.773' stroke-width='0.699998' /></g><circle  fill="black" cx="57.961" cy="179.573" r="1.44" stroke-width="0" stroke="none" /><g partID='62030'><line stroke-linecap='round' stroke='#404040' x1='57.961' y1='179.573' x2='115.561' y2='179.573' stroke-width='0.699998' /></g><circle  fill="black" cx="57.961" cy="179.573" r="1.44" stroke-width="0" stroke="none" /><g partID='62140'><line stroke-linecap='round' stroke='#404040' x1='57.961' y1='150.773' x2='57.961' y2='121.973' stroke-width='0.699998' /></g><g partID='62250'><line stroke-linecap='round' stroke='#404040' x1='72.3611' y1='71.573' x2='57.961' y2='71.5732' stroke-width='0.699998' /></g><g partID='62350'><line stroke-linecap='round' stroke='#404040' x1='115.561' y1='21.1731' x2='115.523' y2='14.1254' stroke-width='0.699998' /></g><g partID='62420'><line stroke-linecap='round' stroke='#404040' x1='115.523' y1='14.1254' x2='57.961' y2='13.973' stroke-width='0.699998' /></g><circle  fill="black" cx="57.961" cy="13.973" r="1.44" stroke-width="0" stroke="none" /></svg>